<svg width="24" height="24" viewBox="0 0 24 24" fill="none" xmlns="http://www.w3.org/2000/svg">
<path d="M13.374 0.504192C13.0027 0.180408 12.511 0 12 0C11.489 0 10.9973 0.180408 10.626 0.504192L0.938002 8.94852C0.641364 9.2074 0.405164 9.51942 0.243873 9.86546C0.0825821 10.2115 -0.000403144 10.5843 1.4725e-06 10.9609V21.235C0.000531674 21.9685 0.316836 22.6718 0.879388 23.1903C1.44194 23.7088 2.2047 24 3 24H6C6.79565 24 7.55871 23.7085 8.12132 23.1896C8.68393 22.6707 9 21.967 9 21.2332V16.6218C9 16.3772 9.10536 16.1426 9.29289 15.9697C9.48043 15.7967 9.73478 15.6996 10 15.6996H14C14.2652 15.6996 14.5196 15.7967 14.7071 15.9697C14.8946 16.1426 15 16.3772 15 16.6218V21.2332C15 21.967 15.3161 22.6707 15.8787 23.1896C16.4413 23.7085 17.2044 24 18 24H21C21.7956 24 22.5587 23.7085 23.1213 23.1896C23.6839 22.6707 24 21.967 24 21.2332V10.9591C23.9999 10.5826 23.9164 10.2101 23.7548 9.86439C23.5932 9.51868 23.3568 9.20703 23.06 8.94852L13.374 0.500503V0.504192Z" fill="white"/>
</svg>
